<svg width="164" height="120" viewBox="0 0 164 120" fill="none" xmlns="http://www.w3.org/2000/svg">
<path fill-rule="evenodd" clip-rule="evenodd" d="M9.20454 120V95.1703C8.69318 95.1703 4.14204 93.4467 2.64204 91.6719C0.767045 89.4535 0 87.235 0 84.5046H9.20454V70.8525C9.496 65.4157 11.3352 59.1629 16.4489 54.0434C21.6505 48.8358 28.5511 45.9375 34.9432 45.9375C41.5909 45.9375 47.9829 48.0985 52.5 52.2516C56.3049 55.7499 61.3636 62.4906 61.3636 70.2552V120H50.7102V95.3409H20.2841V120H9.20454ZM50.625 84.4194V76.9108H29.3182C29.0625 71.2793 33.75 67.6954 37.8409 67.6954L49.9432 67.6955C49.9432 65.4768 45.4261 56.7739 34.8579 56.9446C25.3125 57.0987 20.2841 66.1598 20.2841 70.3407V84.4194H50.625Z" fill="#667461" fill-opacity="0.9"/>
<path d="M144.034 40.2273H155.113V120H144.034V40.2273Z" fill="#667461" fill-opacity="0.9"/>
<path d="M82.6703 95.4546V84.375H144.204V95.4546H82.6703Z" fill="#667461" fill-opacity="0.9"/>
<path d="M71.7612 40.2273H82.8408V120H71.7612V40.2273Z" fill="#667461" fill-opacity="0.9"/>
<path d="M82.6703 77.0455V67.5H127.329V77.0455H82.6703Z" fill="#667461" fill-opacity="0.9"/>
<path d="M71.7612 40.2273C71.7612 30.4483 76.4583 19.3937 84.2299 11.8256C93.1971 3.09313 103.617 0.144338 112.669 0.00569893C123.771 -0.16435 132.14 3.49206 138.375 8.16908C147.443 14.9719 155.113 26.7919 155.113 40.2273H144.034C143.892 36.6842 142.389 27.9992 136.923 21.6046C130.091 13.6113 120.697 10.6351 112.071 10.8902C103.445 11.1453 97.7234 14.8018 93.1971 18.4583C88.6708 22.1148 82.8408 31.0436 82.8408 40.2273H71.7612Z" fill="#667461" fill-opacity="0.9"/>
<path d="M127.329 67.5C128.523 67.6137 131.778 68.9489 133.21 70.9943C135 73.5512 135.085 74.4887 135 77.0455H127.329V67.5Z" fill="#667461" fill-opacity="0.9"/>
<path d="M163.977 84.375H154.943V95.4546C156.492 95.2787 159.329 93.9618 161.138 92.1131C163.719 89.4751 163.977 84.9905 163.977 84.375Z" fill="#667461" fill-opacity="0.9"/>
</svg>
